<svg xmlns="http://www.w3.org/2000/svg" xmlns:xlink="http://www.w3.org/1999/xlink" width="1920" zoomAndPan="magnify" viewBox="0 0 1440 809.999993" height="1080" preserveAspectRatio="xMidYMid meet" version="1.0"><defs><clipPath id="d1e9861fa4"><path d="M 463 269.871094 L 977 269.871094 L 977 539 L 463 539 Z M 463 269.871094 " clip-rule="nonzero"/></clipPath></defs><g clip-path="url(#d1e9861fa4)"><path fill="#ffffff" d="M 964.429688 269.714844 C 962.816406 269.753906 961.273438 270.097656 959.796875 270.746094 C 958.320312 271.394531 957.023438 272.300781 955.90625 273.460938 L 720 509.152344 L 484.09375 273.460938 C 482.945312 272.277344 481.609375 271.367188 480.085938 270.726562 C 478.566406 270.082031 476.980469 269.761719 475.332031 269.761719 C 474.113281 269.761719 472.925781 269.941406 471.761719 270.296875 C 470.597656 270.652344 469.511719 271.167969 468.503906 271.847656 C 467.496094 272.523438 466.605469 273.335938 465.839844 274.277344 C 465.074219 275.222656 464.460938 276.257812 464.003906 277.382812 C 463.546875 278.507812 463.261719 279.675781 463.15625 280.886719 C 463.046875 282.097656 463.117188 283.296875 463.367188 284.484375 C 463.613281 285.675781 464.03125 286.800781 464.617188 287.867188 C 465.203125 288.933594 465.933594 289.886719 466.804688 290.734375 L 711.355469 535.0625 C 711.921875 535.628906 712.539062 536.136719 713.207031 536.582031 C 713.875 537.027344 714.578125 537.402344 715.320312 537.710938 C 716.0625 538.015625 716.828125 538.25 717.613281 538.40625 C 718.402344 538.5625 719.195312 538.640625 720 538.640625 C 720.800781 538.640625 721.597656 538.5625 722.386719 538.40625 C 723.171875 538.25 723.9375 538.015625 724.679688 537.710938 C 725.421875 537.402344 726.125 537.027344 726.792969 536.582031 C 727.460938 536.136719 728.078125 535.628906 728.644531 535.0625 L 973.195312 290.734375 C 974.082031 289.882812 974.824219 288.917969 975.421875 287.839844 C 976.015625 286.761719 976.441406 285.621094 976.691406 284.417969 C 976.941406 283.210938 977.007812 281.996094 976.894531 280.773438 C 976.777344 279.546875 976.480469 278.367188 976.007812 277.230469 C 975.535156 276.09375 974.902344 275.054688 974.113281 274.109375 C 973.324219 273.164062 972.414062 272.355469 971.382812 271.683594 C 970.347656 271.015625 969.238281 270.511719 968.054688 270.175781 C 966.871094 269.839844 965.660156 269.6875 964.429688 269.714844 Z M 964.429688 269.714844 " fill-opacity="1" fill-rule="nonzero"/></g></svg>